name Walk2.mot
datacolumns 19
datarows 22
range 1.14000000 1.24500000
endheader

                time	   L_ground_force_vx	   L_ground_force_vy	   L_ground_force_vz	   L_ground_force_px	   L_ground_force_py	   L_ground_force_pz	   R_ground_force_vx	   R_ground_force_vy	   R_ground_force_vz	   R_ground_force_px	   R_ground_force_py	   R_ground_force_pz	   L_ground_torque_x	   L_ground_torque_y	   L_ground_torque_z	   R_ground_torque_x	   R_ground_torque_y	   R_ground_torque_z	
          1.14000000	          0.09261716	          0.22168542	         -0.00418678	         -0.00014895	          0.00000000	         -0.00003180	        -26.64011192	        722.24006387	        -42.60613890	          0.23797826	          0.00000000	          0.08609074	          0.00000000	         -0.00029997	          0.00000000	          0.00000000	          5.44845462	          0.00000000	
          1.14500000	          0.07910756	          0.19327365	         -0.00660159	         -0.00026869	          0.00000000	         -0.00003354	        -25.13786714	        715.94867542	        -41.49065770	          0.24020061	          0.00000000	          0.08624333	          0.00000000	         -0.00041185	          0.00000000	          0.00000000	          5.11134850	          0.00000000	
          1.15000000	          0.06418767	          0.15976813	         -0.00762806	         -0.00032422	          0.00000000	         -0.00003201	        -23.65947969	        709.82147549	        -40.47950501	          0.24243066	          0.00000000	          0.08640579	          0.00000000	         -0.00045103	          0.00000000	          0.00000000	          4.79897439	          0.00000000	
          1.15500000	          0.04954336	          0.12564596	         -0.00768302	         -0.00033419	          0.00000000	         -0.00002849	        -22.20394875	        703.97176671	        -39.62104469	          0.24467051	          0.00000000	          0.08657677	          0.00000000	         -0.00044048	          0.00000000	          0.00000000	          4.51309612	          0.00000000	
          1.16000000	          0.03623397	          0.09382699	         -0.00711063	         -0.00031416	          0.00000000	         -0.00002398	        -20.76990414	        698.50278151	        -38.95058546	          0.24692026	          0.00000000	          0.08675333	          0.00000000	         -0.00039888	          0.00000000	          0.00000000	          4.25379791	          0.00000000	
          1.16500000	          0.02483324	          0.06600153	         -0.00618121	         -0.00027646	          0.00000000	         -0.00001920	        -19.35568759	        693.51060499	        -38.48640537	          0.24917736	          0.00000000	          0.08693080	          0.00000000	         -0.00034066	          0.00000000	          0.00000000	          4.01986725	          0.00000000	
          1.17000000	          0.01555817	          0.04293767	         -0.00509633	         -0.00023043	          0.00000000	         -0.00001461	        -17.96057231	        689.08701829	        -38.22904850	          0.25143669	          0.00000000	          0.08710408	          0.00000000	         -0.00027638	          0.00000000	          0.00000000	          3.80932868	          0.00000000	
          1.17500000	          0.00837978	          0.02475142	         -0.00399756	         -0.00018268	          0.00000000	         -0.00001051	        -16.58535542	        685.31850990	        -38.16277425	          0.25369126	          0.00000000	          0.08726869	          0.00000000	         -0.00021330	          0.00000000	          0.00000000	          3.61961579	          0.00000000	
          1.18000000	          0.00311368	          0.01113139	         -0.00297678	         -0.00013761	          0.00000000	         -0.00000705	        -15.23237437	        682.28029801	        -38.25922825	          0.25593438	          0.00000000	          0.08742106	          0.00000000	         -0.00015598	          0.00000000	          0.00000000	          3.44778811	          0.00000000	
          1.18500000	         -0.00050962	          0.00151677	         -0.00208674	         -0.00009783	          0.00000000	         -0.00000428	        -13.90494778	        680.02663864	        -38.48303789	          0.25815932	          0.00000000	          0.08755686	          0.00000000	         -0.00010688	          0.00000000	          0.00000000	          3.29059215	          0.00000000	
          1.19000000	         -0.00279287	         -0.00476886	         -0.00135095	         -0.00006458	          0.00000000	         -0.00000216	        -12.60642303	        678.59435506	        -38.79676047	          0.26036167	          0.00000000	          0.08767243	          0.00000000	         -0.00006695	          0.00000000	          0.00000000	          3.14458047	          0.00000000	
          1.19500000	         -0.00403619	         -0.00842255	         -0.00077225	         -0.00003815	          0.00000000	         -0.00000063	        -11.33990549	        678.00329683	        -39.16411581	          0.26254018	          0.00000000	          0.08776628	          0.00000000	         -0.00003604	          0.00000000	          0.00000000	          3.00637194	          0.00000000	
          1.20000000	         -0.00451429	         -0.01009947	         -0.00034007	         -0.00001818	          0.00000000	          0.00000040	        -10.10801844	        678.25164259	        -39.55216173	          0.26469651	          0.00000000	          0.08783794	          0.00000000	         -0.00001337	          0.00000000	          0.00000000	          2.87291514	          0.00000000	
          1.20500000	         -0.00446387	         -0.01037610	         -0.00003602	         -0.00000394	          0.00000000	          0.00000103	         -8.91296326	        679.31683499	        -39.93308773	          0.26683354	          0.00000000	          0.08788723	          0.00000000	          0.00000222	          0.00000000	          0.00000000	          2.74156371	          0.00000000	
          1.21000000	         -0.00407849	         -0.00973287	          0.00016180	          0.00000550	          0.00000000	          0.00000135	         -7.75532596	        681.15671501	        -40.28664393	          0.26895459	          0.00000000	          0.08791453	          0.00000000	          0.00001205	          0.00000000	          0.00000000	          2.61003317	          0.00000000	
          1.21500000	         -0.00350880	         -0.00855063	          0.00027587	          0.00001113	          0.00000000	          0.00000145	         -6.63443855	        683.71227631	        -40.60154314	          0.27106392	          0.00000000	          0.08792121	          0.00000000	          0.00001740	          0.00000000	          0.00000000	          2.47645620	          0.00000000	
          1.22000000	         -0.00286596	         -0.00711623	          0.00032720	          0.00001385	          0.00000000	          0.00000140	         -5.54841526	        686.91277604	        -40.87435947	          0.27316564	          0.00000000	          0.08790923	          0.00000000	          0.00001945	          0.00000000	          0.00000000	          2.33955401	          0.00000000	
          1.22500000	         -0.00222706	         -0.00563357	          0.00033424	          0.00001450	          0.00000000	          0.00000126	         -4.49421485	        690.67635691	        -41.10893573	          0.27526238	          0.00000000	          0.08788006	          0.00000000	          0.00001923	          0.00000000	          0.00000000	          2.19873395	          0.00000000	
          1.23000000	         -0.00164121	         -0.00423722	          0.00031232	          0.00001377	          0.00000000	          0.00000107	         -3.46809979	        694.91147076	        -41.31462046	          0.27735565	          0.00000000	          0.08783475	          0.00000000	          0.00001757	          0.00000000	          0.00000000	          2.05347792	          0.00000000	
          1.23500000	         -0.00113572	         -0.00300666	          0.00027356	          0.00001222	          0.00000000	          0.00000086	         -2.46487406	        699.52216206	        -41.50514510	          0.27944774	          0.00000000	          0.08777419	          0.00000000	          0.00001511	          0.00000000	          0.00000000	          1.90309771	          0.00000000	
          1.24000000	         -0.00072173	         -0.00197973	          0.00022707	          0.00001025	          0.00000000	          0.00000066	         -1.47824174	        704.41464429	        -41.69737846	          0.28154083	          0.00000000	          0.08769964	          0.00000000	          0.00001234	          0.00000000	          0.00000000	          1.74702000	          0.00000000	
          1.24500000	         -0.00039917	         -0.00116461	          0.00017930	          0.00000818	          0.00000000	          0.00000048	         -0.50033740	        709.50148220	        -41.90867836	          0.28363488	          0.00000000	          0.08761242	          0.00000000	          0.00000959	          0.00000000	          0.00000000	          1.58466639	          0.00000000	
